<svg id="Capa_1" enable-background="new 0 0 512 512" height="512" viewBox="0 0 512 512" width="512" xmlns="http://www.w3.org/2000/svg"><g><path d="m304.809 129.507-27.012 15.601-8.057-6.855c-7.031-5.977-14.912-10.562-23.408-13.608l-9.961-3.56v-31.085h-30v31.084l-9.961 3.56c-8.496 3.047-16.377 7.632-23.408 13.608l-8.057 6.855-27.012-15.601-15 25.986 26.719 15.439-1.875 10.386c-1.87 10.154-1.873 17.195 0 27.363l1.875 10.386-26.719 15.439 15 25.986 27.012-15.601 8.057 6.855c7.031 5.991 14.912 10.562 23.408 13.579l9.961 3.56v31.116h30v-31.084l9.961-3.56c8.496-3.047 16.377-7.632 23.408-13.608l8.057-6.855 27.012 15.601 15-25.986-26.719-15.439 1.875-10.386c1.87-10.154 1.873-17.195 0-27.363l-1.875-10.386 26.719-15.439zm-83.438 110.493c-24.814 0-45-20.186-45-45s20.186-45 45-45 45 20.186 45 45-20.185 45-45 45z"/><path d="m416.342 191.396c-1.934-105.864-88.653-191.396-194.971-191.396-107.52 0-195 87.48-195 195 0 52.896 21.797 103.682 60 140.42v176.58h210v-60h120v-122h69.258zm-90.381 12.027 34.805 20.098-45 77.959-35.127-20.303c-4.541 3.135-9.316 5.903-14.268 8.276v40.547h-90v-40.562c-4.951-2.358-9.727-5.127-14.268-8.262l-35.127 20.303-45-77.959 34.805-20.098c-.531-5.58-.561-10.951 0-16.846l-34.805-20.098 45-77.959 35.127 20.303c4.541-3.135 9.316-5.903 14.268-8.276v-40.546h90v40.547c4.951 2.373 9.727 5.142 14.268 8.276l35.127-20.303 45 77.959-34.805 20.098c.531 5.58.561 10.951 0 16.846z"/><circle cx="221.371" cy="195" r="15"/></g></svg>